{"accessors":[{"bufferView":0,"byteOffset":0,"componentType":5126,"count":8,"max":[100.0,100.0,200.0],"min":[0.0,0.0,0.0],"type":"VEC3"},{"bufferView":1,"byteOffset":0,"componentType":5125,"count":24,"type":"SCALAR"},{"bufferView":2,"byteOffset":0,"componentType":5126,"count":78771,"max":[102.26795196533203,102.16402435302734,206.9853973388672],"min":[-8.033252716064453,-2.116396903991699,-2.150555372238159],"type":"VEC3"},{"bufferView":3,"byteOffset":0,"componentType":5126,"count":78771,"normalized":false,"type":"VEC2"},{"bufferView":4,"byteOffset":0,"componentType":5125,"count":169542,"type":"SCALAR"}],"asset":{"generator":"VTK","version":"2.0"},"bufferViews":[{"buffer":0,"byteLength":96,"byteOffset":0},{"buffer":1,"byteLength":96,"byteOffset":0},{"buffer":2,"byteLength":945252,"byteOffset":0},{"buffer":3,"byteLength":630168,"byteOffset":0},{"buffer":4,"byteLength":678168,"byteOffset":0},{"buffer":5,"byteLength":123,"byteOffset":0}],"buffers":[{"byteLength":96,"uri":"data:application/octet-stream;base64,"},{"byteLength":96,"uri":"data:application/octet-stream;base64,"},{"byteLength":945252,"uri":"data:application/octet-stream;base64,"},{"byteLength":630168,"uri":"data:application/octet-stream;base64,"},{"byteLength":678168,"uri":"data:application/octet-stream;base64,"},{"byteLength":123,"uri":"data:application/octet-stream;base64,"}],"cameras":[{"perspective":{"aspectRatio":1.3333333333333333,"yfov":0.5235987755982988,"zfar":813.1122676532657,"znear":250.8180567603632},"type":"perspective"}],"images":[{"bufferView":5,"mimeType":"image/png"}],"materials":[{"pbrMetallicRoughness":{"baseColorFactor":[0.0,0.0,0.0,1.0],"metallicFactor":0.0,"roughnessFactor":1.0}},{"pbrMetallicRoughness":{"baseColorFactor":[1.0,1.0,1.0,1.0],"baseColorTexture":{"index":0,"texCoord":0},"metallicFactor":0.0,"roughnessFactor":1.0}}],"meshes":[{"name":"mesh0","primitives":[{"attributes":{"POSITION":0},"indices":1,"material":0,"mode":1}]},{"name":"mesh1","primitives":[{"attributes":{"POSITION":2,"TEXCOORD_0":3},"indices":4,"material":1,"mode":4}]}],"nodes":[{"matrix":[0.0,0.0,1.0000000000000004,0.0,1.0000000000000004,0.0,0.0,0.0,0.0,1.0000000000000004,0.0,0.0,0.0,0.0,0.0,1.0],"mesh":0,"name":"mesh0"},{"matrix":[0.0,0.0,1.0000000000000004,0.0,1.0000000000000004,0.0,0.0,0.0,0.0,1.0000000000000004,0.0,0.0,0.0,0.0,0.0,1.0],"mesh":1,"name":"mesh1"},{"camera":0,"matrix":[-0.7071067811865476,0.7071067811865476,0.0,-0.0,-0.4082482904638631,-0.4082482904638631,0.8164965809277261,0.0,0.5773502691896258,0.5773502691896258,0.5773502691896258,-0.0,335.3424703387472,338.24893443863124,390.64254169742793,1.0],"name":"Camera Node"},{"children":[0,1,2],"name":"Renderer Node"}],"samplers":[{"magFilter":9728,"minFilter":9728,"wrapS":33071,"wrapT":33071}],"scene":0,"scenes":[{"name":"Layer 0","nodes":[3]}],"textures":[{"sampler":0,"source":0}]}